<?xml version="1.0" encoding="UTF-8" standalone="no"?>
<!-- Created with Inkscape (http://www.inkscape.org/) -->

<svg
   width="50"
   height="50"
   viewBox="0 0 13.229166 13.229167"
   version="1.1"
   id="svg5"
   inkscape:version="1.1.1 (3bf5ae0d25, 2021-09-20)"
   sodipodi:docname="drawing.svg"
   xmlns:inkscape="http://www.inkscape.org/namespaces/inkscape"
   xmlns:sodipodi="http://sodipodi.sourceforge.net/DTD/sodipodi-0.dtd"
   xmlns:xlink="http://www.w3.org/1999/xlink"
   xmlns="http://www.w3.org/2000/svg"
   xmlns:svg="http://www.w3.org/2000/svg">
  <sodipodi:namedview
     id="namedview7"
     pagecolor="#505050"
     bordercolor="#ffffff"
     borderopacity="1"
     inkscape:pageshadow="0"
     inkscape:pageopacity="0"
     inkscape:pagecheckerboard="1"
     inkscape:document-units="mm"
     showgrid="false"
     units="px"
     inkscape:zoom="8"
     inkscape:cx="-1"
     inkscape:cy="23.5625"
     inkscape:window-width="1920"
     inkscape:window-height="1017"
     inkscape:window-x="-8"
     inkscape:window-y="-8"
     inkscape:window-maximized="1"
     inkscape:current-layer="layer1"
     width="100px">
    <inkscape:grid
       type="xygrid"
       id="grid9" />
  </sodipodi:namedview>
  <defs
     id="defs2">
    <linearGradient
       inkscape:collect="always"
       id="linearGradient13712">
      <stop
         style="stop-color:#a3aeec;stop-opacity:1;"
         offset="0"
         id="stop13708" />
      <stop
         style="stop-color:#a3aeec;stop-opacity:0;"
         offset="1"
         id="stop13710" />
    </linearGradient>
    <linearGradient
       id="linearGradient4758"
       inkscape:swatch="solid">
      <stop
         style="stop-color:#dce0e8;stop-opacity:1;"
         offset="0"
         id="stop4756" />
    </linearGradient>
    <linearGradient
       id="linearGradient2788"
       inkscape:swatch="gradient">
      <stop
         style="stop-color:#dce0e8;stop-opacity:1;"
         offset="0"
         id="stop2784" />
      <stop
         style="stop-color:#dce0e8;stop-opacity:0;"
         offset="1"
         id="stop2786" />
    </linearGradient>
    <radialGradient
       inkscape:collect="always"
       xlink:href="#linearGradient13712"
       id="radialGradient13714"
       cx="244.64001"
       cy="247.73257"
       fx="244.64001"
       fy="247.73257"
       r="201.28954"
       gradientTransform="matrix(0.05971649,-7.30405e-5,8.5782403e-5,0.07013402,-8.0171294,-10.742866)"
       gradientUnits="userSpaceOnUse" />
  </defs>
  <g
     inkscape:label="Layer 1"
     inkscape:groupmode="layer"
     id="layer1">
    <path
       id="path9013"
       style="opacity:1;fill:#c7d4ff;stroke:url(#radialGradient13714);stroke-width:0.294046;stroke-miterlimit:4;stroke-dasharray:none;stroke-opacity:1"
       d="M 8.5286157,0.68624131 C 8.3783255,0.64618095 7.49579,2.8391087 7.0004373,3.8965711 A 2.793439,2.793439 0 0 0 6.7707706,3.8869823 2.793439,2.793439 0 0 0 6.0597193,3.9809966 C 5.0817773,3.118996 3.3014824,1.39995 3.1769175,1.4918837 3.0328271,1.5982279 4.0976151,4.4191625 4.3383422,5.3087995 A 2.793439,2.793439 0 0 0 4.1655328,5.6738872 C 3.38144,5.919369 0.71461667,6.404338 0.70905417,6.5750928 0.70380867,6.7360435 3.1243696,7.1657813 4.0795014,7.4219688 A 2.793439,2.793439 0 0 0 4.2938906,7.9679649 C 3.7869959,8.8452676 2.3544591,10.893486 2.4815439,11.004797 2.6062895,11.114057 4.5628117,9.7049668 5.4601405,9.145068 A 2.793439,2.793439 0 0 0 6.2274173,9.4186117 C 6.7630413,10.420232 7.7665387,12.579587 7.919159,12.54113 8.0943627,12.496982 8.1760233,9.7013053 8.3095171,9.0103354 A 2.793439,2.793439 0 0 0 8.5338991,8.8459676 C 9.2540019,8.8863628 11.967922,9.4039311 12.063603,9.2557956 12.15348,9.1166472 10.192038,7.6505365 9.5385379,7.0476342 A 2.793439,2.793439 0 0 0 9.5642089,6.6804211 2.793439,2.793439 0 0 0 9.5616789,6.5665358 C 10.301841,5.9972121 12.570558,4.5999783 12.51607,4.4390081 12.452273,4.2505444 9.0768986,4.8579586 8.8005181,4.7614822 A 2.793439,2.793439 0 0 0 8.7687586,4.7281735 C 8.621409,4.4092399 8.7196114,0.73714997 8.5286157,0.68624131 Z" />
  </g>
</svg>
