<?xml version="1.0" encoding="UTF-8" standalone="no"?>
<!-- Created with Inkscape (http://www.inkscape.org/) -->

<svg
   width="500"
   height="500"
   viewBox="0 0 132.29166 132.29167"
   version="1.1"
   id="svg14830"
   inkscape:version="1.1.1 (3bf5ae0d25, 2021-09-20, custom)"
   sodipodi:docname="random_generator.svg"
   xmlns:inkscape="http://www.inkscape.org/namespaces/inkscape"
   xmlns:sodipodi="http://sodipodi.sourceforge.net/DTD/sodipodi-0.dtd"
   xmlns="http://www.w3.org/2000/svg"
   xmlns:svg="http://www.w3.org/2000/svg">
  <sodipodi:namedview
     id="namedview14832"
     pagecolor="#505050"
     bordercolor="#ffffff"
     borderopacity="1"
     inkscape:pageshadow="0"
     inkscape:pageopacity="0"
     inkscape:pagecheckerboard="1"
     inkscape:document-units="mm"
     showgrid="false"
     scale-x="1"
     units="px"
     inkscape:zoom="1"
     inkscape:cx="231"
     inkscape:cy="243.5"
     inkscape:window-width="1920"
     inkscape:window-height="1016"
     inkscape:window-x="0"
     inkscape:window-y="0"
     inkscape:window-maximized="1"
     inkscape:current-layer="layer1"
     inkscape:snap-page="false"
     showguides="false"
     fit-margin-top="0"
     fit-margin-left="0"
     fit-margin-right="0"
     fit-margin-bottom="0">
    <inkscape:grid
       type="xygrid"
       id="grid19431"
       originx="-0.1595428"
       originy="-0.21944811" />
  </sodipodi:namedview>
  <defs
     id="defs14827" />
  <g
     inkscape:label="Layer 1"
     inkscape:groupmode="layer"
     id="layer1"
     transform="translate(-0.1595428,-0.21944809)">
    <rect
       style="fill:#5c8661;fill-opacity:1;stroke:#445941;stroke-width:5.38409;stroke-miterlimit:4;stroke-dasharray:none;stroke-opacity:1"
       id="rect14856"
       width="126.69801"
       height="126.65184"
       x="2.8515878"
       y="2.9114931"
       ry="6.4618292" />
    <path
       id="rect3867"
       style="fill:#4f7153;fill-opacity:1;stroke:#405f3f;stroke-width:4.37602;stroke-opacity:1"
       d="M 112.03157,58.298377 V 73.233528 H 19.871507 V 58.298377 Z M 58.483967,19.685922 H 73.419118 V 111.84599 H 58.483967 Z" />
    <text
       xml:space="preserve"
       style="font-style:normal;font-weight:normal;font-size:46.3574px;line-height:1.25;font-family:sans-serif;fill:#4f4f4f;fill-opacity:1;stroke:none;stroke-width:1.15892;stroke-opacity:1"
       x="-101.59262"
       y="-81.55307"
       id="text4676"
       transform="matrix(-1.0328421,-0.01164312,0.01091305,-0.96807921,0,0)"><tspan
         sodipodi:role="line"
         id="tspan4674"
         style="fill:#4f4f4f;fill-opacity:1;stroke:none;stroke-width:1.15892;stroke-opacity:1"
         x="-101.59262"
         y="-81.55307" /></text>
    <text
       xml:space="preserve"
       style="font-style:normal;font-weight:normal;font-size:46.3574px;line-height:1.25;font-family:sans-serif;fill:#4f4f4f;fill-opacity:1;stroke:none;stroke-width:1.15892;stroke-opacity:1"
       x="-101.59262"
       y="-81.55307"
       id="text4680"
       transform="matrix(-1.0328421,-0.01164312,0.01091305,-0.96807921,0,0)"><tspan
         sodipodi:role="line"
         id="tspan4678"
         style="fill:#4f4f4f;fill-opacity:1;stroke:none;stroke-width:1.15892;stroke-opacity:1"
         x="-101.59262"
         y="-81.55307" /></text>
    <text
       xml:space="preserve"
       style="font-style:normal;font-weight:normal;font-size:46.3574px;line-height:1.25;font-family:sans-serif;fill:#4f4f4f;fill-opacity:1;stroke:none;stroke-width:1.15892;stroke-opacity:1"
       x="-101.59262"
       y="-81.55307"
       id="text4684"
       transform="matrix(-1.0328421,-0.01164312,0.01091305,-0.96807921,0,0)"><tspan
         sodipodi:role="line"
         id="tspan4682"
         style="fill:#4f4f4f;fill-opacity:1;stroke:none;stroke-width:1.15892;stroke-opacity:1"
         x="-101.59262"
         y="-81.55307" /></text>
    <text
       xml:space="preserve"
       style="font-style:normal;font-weight:normal;font-size:46.3574px;line-height:1.25;font-family:sans-serif;fill:#4f4f4f;fill-opacity:1;stroke:none;stroke-width:1.15892;stroke-opacity:1"
       x="-101.59262"
       y="-81.55307"
       id="text4688"
       transform="matrix(-1.0328421,-0.01164312,0.01091305,-0.96807921,0,0)"><tspan
         sodipodi:role="line"
         id="tspan4686"
         style="fill:#4f4f4f;fill-opacity:1;stroke:none;stroke-width:1.15892;stroke-opacity:1"
         x="-101.59262"
         y="-81.55307" /></text>
    <text
       xml:space="preserve"
       style="font-style:normal;font-weight:normal;font-size:46.3574px;line-height:1.25;font-family:sans-serif;fill:#4f4f4f;fill-opacity:1;stroke:none;stroke-width:1.15892;stroke-opacity:1"
       x="-101.59262"
       y="-81.55307"
       id="text4692"
       transform="matrix(-1.0328421,-0.01164312,0.01091305,-0.96807921,0,0)"><tspan
         sodipodi:role="line"
         id="tspan4690"
         style="fill:#4f4f4f;fill-opacity:1;stroke:none;stroke-width:1.15892;stroke-opacity:1"
         x="-101.59262"
         y="-81.55307" /></text>
    <text
       xml:space="preserve"
       style="font-style:normal;font-weight:normal;font-size:46.3574px;line-height:1.25;font-family:sans-serif;fill:#4f4f4f;fill-opacity:1;stroke:none;stroke-width:1.15892;stroke-opacity:1"
       x="-101.59262"
       y="-81.55307"
       id="text4696"
       transform="matrix(-1.0328421,-0.01164312,0.01091305,-0.96807921,0,0)"><tspan
         sodipodi:role="line"
         id="tspan4694"
         style="fill:#4f4f4f;fill-opacity:1;stroke:none;stroke-width:1.15892;stroke-opacity:1"
         x="-101.59262"
         y="-81.55307" /></text>
    <text
       xml:space="preserve"
       style="font-style:normal;font-weight:normal;font-size:46.3574px;line-height:1.25;font-family:sans-serif;fill:#4f4f4f;fill-opacity:1;stroke:none;stroke-width:1.15892;stroke-opacity:1"
       x="-101.59262"
       y="-81.55307"
       id="text4700"
       transform="matrix(-1.0328421,-0.01164312,0.01091305,-0.96807921,0,0)"><tspan
         sodipodi:role="line"
         id="tspan4698"
         style="fill:#4f4f4f;fill-opacity:1;stroke:none;stroke-width:1.15892;stroke-opacity:1"
         x="-101.59262"
         y="-81.55307" /></text>
    <text
       xml:space="preserve"
       style="font-style:normal;font-weight:normal;font-size:46.3574px;line-height:1.25;font-family:sans-serif;fill:#4f4f4f;fill-opacity:1;stroke:none;stroke-width:1.15892;stroke-opacity:1"
       x="-101.59262"
       y="-81.55307"
       id="text4704"
       transform="matrix(-1.0328421,-0.01164312,0.01091305,-0.96807921,0,0)"><tspan
         sodipodi:role="line"
         id="tspan4702"
         style="fill:#4f4f4f;fill-opacity:1;stroke:none;stroke-width:1.15892;stroke-opacity:1"
         x="-101.59262"
         y="-81.55307" /></text>
    <text
       xml:space="preserve"
       style="font-style:normal;font-weight:normal;font-size:46.3574px;line-height:1.25;font-family:sans-serif;fill:#4f4f4f;fill-opacity:1;stroke:none;stroke-width:1.15892;stroke-opacity:1"
       x="-101.59262"
       y="-81.55307"
       id="text4708"
       transform="matrix(-1.0328421,-0.01164312,0.01091305,-0.96807921,0,0)"><tspan
         sodipodi:role="line"
         id="tspan4706"
         style="fill:#4f4f4f;fill-opacity:1;stroke:none;stroke-width:1.15892;stroke-opacity:1"
         x="-101.59262"
         y="-81.55307" /></text>
    <g
       aria-label="?"
       transform="matrix(-1.0328421,-0.01164312,0.01091305,-0.96807919,0,0)"
       id="text4308"
       style="font-size:46.3574px;line-height:1.25;fill:#426638;stroke-width:1.15892">
      <path
         d="m -44.206478,-23.599385 h 4.594996 v 5.749404 h -4.594996 z m 4.459184,-3.327411 h -4.323371 v -3.485859 q 0,-2.286181 0.633793,-3.757485 0.633792,-1.471304 2.670982,-3.417953 l 2.037191,-2.014555 q 1.29022,-1.199678 1.856107,-2.263544 0.588521,-1.063866 0.588521,-2.173003 0,-2.014555 -1.493939,-3.259505 -1.471304,-1.24495 -3.915933,-1.24495 -1.7882,0 -3.825391,0.792241 -2.014555,0.792241 -4.210193,2.308816 v -4.255465 q 2.127732,-1.29022 4.300735,-1.924013 2.195639,-0.633792 4.52709,-0.633792 4.164922,0 6.677457,2.195638 2.53517,2.195639 2.53517,5.794675 0,1.720294 -0.814876,3.28214 -0.814876,1.539211 -2.852066,3.485859 l -1.99192,1.946649 q -1.063866,1.063866 -1.516575,1.675023 -0.430073,0.588522 -0.611157,1.154408 -0.135813,0.475344 -0.203719,1.154408 -0.06791,0.679063 -0.06791,1.856107 z"
         id="path9379" />
    </g>
    <g
       aria-label="?"
       transform="matrix(1.0328421,0.01164312,-0.01091305,0.96807919,0,0)"
       id="text8808"
       style="font-size:46.3574px;line-height:1.25;fill:#426638;stroke-width:1.15892">
      <path
         d="m 84.572285,109.90233 h 4.594996 v 5.7494 h -4.594996 z m 4.459183,-3.32741 h -4.32337 v -3.48586 q 0,-2.28618 0.633792,-3.757485 0.633793,-1.471304 2.670983,-3.417953 l 2.037191,-2.014555 q 1.29022,-1.199679 1.856106,-2.263545 0.588522,-1.063866 0.588522,-2.173003 0,-2.014555 -1.493939,-3.259504 -1.471305,-1.24495 -3.915933,-1.24495 -1.788201,0 -3.825391,0.792241 -2.014555,0.79224 -4.210193,2.308815 v -4.255464 q 2.127732,-1.290221 4.300735,-1.924013 2.195638,-0.633793 4.52709,-0.633793 4.164922,0 6.677457,2.195639 2.53517,2.195638 2.53517,5.794675 0,1.720294 -0.814876,3.28214 -0.814876,1.53921 -2.852066,3.485859 l -1.99192,1.946648 q -1.063866,1.063867 -1.516575,1.675024 -0.430074,0.588524 -0.611157,1.154404 -0.135813,0.47535 -0.203719,1.15441 -0.06791,0.67906 -0.06791,1.85611 z"
         id="path9373" />
    </g>
    <g
       aria-label="?"
       transform="matrix(0.01164312,-1.0328421,0.96807919,0.01091305,0,0)"
       id="text8812"
       style="font-size:46.3574px;line-height:1.25;fill:#426638;stroke-width:1.15892">
      <path
         d="m -42.933452,111.88525 h 4.594996 v 5.74941 h -4.594996 z m 4.459183,-3.32741 h -4.323371 v -3.48586 q 0,-2.28618 0.633793,-3.75748 0.633793,-1.471304 2.670983,-3.417952 l 2.03719,-2.014555 q 1.290221,-1.199679 1.856107,-2.263545 0.588522,-1.063866 0.588522,-2.173003 0,-2.014555 -1.49394,-3.259505 -1.471304,-1.24495 -3.915932,-1.24495 -1.788201,0 -3.825391,0.792241 -2.014555,0.792241 -4.210194,2.308816 v -4.255465 q 2.127732,-1.29022 4.300736,-1.924013 2.195638,-0.633792 4.527089,-0.633792 4.164923,0 6.677458,2.195638 2.53517,2.195639 2.53517,5.794675 0,1.720294 -0.814876,3.28214 -0.814876,1.539211 -2.852067,3.485859 l -1.991919,1.946649 q -1.063866,1.063862 -1.516575,1.675022 -0.430074,0.58852 -0.611157,1.15441 -0.135813,0.47534 -0.203719,1.15441 -0.06791,0.67906 -0.06791,1.8561 z"
         id="path9376" />
    </g>
    <g
       aria-label="?"
       transform="matrix(-0.01164312,1.0328421,-0.96807919,-0.01091305,0,0)"
       id="text8816"
       style="font-size:46.3574px;line-height:1.25;fill:#426638;stroke-width:1.15892">
      <path
         d="m 83.734044,-25.527129 h 4.594996 v 5.749404 h -4.594996 z m 4.459183,-3.327411 h -4.323371 v -3.485859 q 0,-2.286181 0.633793,-3.757485 0.633792,-1.471304 2.670983,-3.417953 l 2.03719,-2.014554 q 1.290221,-1.199679 1.856107,-2.263545 0.588522,-1.063866 0.588522,-2.173003 0,-2.014555 -1.49394,-3.259505 -1.471304,-1.24495 -3.915933,-1.24495 -1.7882,0 -3.825391,0.792241 -2.014554,0.792241 -4.210193,2.308816 v -4.255465 q 2.127732,-1.29022 4.300735,-1.924013 2.195639,-0.633792 4.52709,-0.633792 4.164923,0 6.677457,2.195638 2.535171,2.195639 2.535171,5.794675 0,1.720294 -0.814876,3.28214 -0.814877,1.539211 -2.852067,3.485859 l -1.99192,1.946649 q -1.063866,1.063866 -1.516575,1.675023 -0.430073,0.588522 -0.611157,1.154408 -0.135812,0.475344 -0.203719,1.154408 -0.06791,0.679063 -0.06791,1.856107 z"
         id="path9382" />
    </g>
  </g>
</svg>
