<?xml version="1.0" encoding="UTF-8" standalone="no"?>
<!-- Created with Inkscape (http://www.inkscape.org/) -->

<svg
   width="500"
   height="500"
   viewBox="0 0 132.29166 132.29167"
   version="1.1"
   id="svg14830"
   inkscape:version="1.1.1 (3bf5ae0d25, 2021-09-20, custom)"
   sodipodi:docname="icon.svg"
   xmlns:inkscape="http://www.inkscape.org/namespaces/inkscape"
   xmlns:sodipodi="http://sodipodi.sourceforge.net/DTD/sodipodi-0.dtd"
   xmlns:xlink="http://www.w3.org/1999/xlink"
   xmlns="http://www.w3.org/2000/svg"
   xmlns:svg="http://www.w3.org/2000/svg">
  <sodipodi:namedview
     id="namedview14832"
     pagecolor="#505050"
     bordercolor="#ffffff"
     borderopacity="1"
     inkscape:pageshadow="0"
     inkscape:pageopacity="0"
     inkscape:pagecheckerboard="1"
     inkscape:document-units="mm"
     showgrid="false"
     scale-x="1"
     units="px"
     inkscape:zoom="1"
     inkscape:cx="164"
     inkscape:cy="378.49999"
     inkscape:window-width="1920"
     inkscape:window-height="1016"
     inkscape:window-x="0"
     inkscape:window-y="0"
     inkscape:window-maximized="1"
     inkscape:current-layer="layer1"
     inkscape:snap-page="true"
     showguides="false"
     fit-margin-top="0"
     fit-margin-left="0"
     fit-margin-right="0"
     fit-margin-bottom="0"
     inkscape:snap-bbox="true"
     inkscape:bbox-nodes="true">
    <inkscape:grid
       type="xygrid"
       id="grid19431"
       originx="-0.1595428"
       originy="-0.21944811" />
  </sodipodi:namedview>
  <defs
     id="defs14827">
    <linearGradient
       inkscape:collect="always"
       id="linearGradient17337">
      <stop
         style="stop-color:#3ca6a4;stop-opacity:1"
         offset="0"
         id="stop17333" />
      <stop
         style="stop-color:#598897;stop-opacity:1"
         offset="0.5"
         id="stop17691" />
      <stop
         style="stop-color:#395e97;stop-opacity:1"
         offset="1"
         id="stop17335" />
    </linearGradient>
    <linearGradient
       inkscape:collect="always"
       xlink:href="#linearGradient17337"
       id="linearGradient17339"
       x1="0.1595428"
       y1="66.237413"
       x2="132.24165"
       y2="66.237413"
       gradientUnits="userSpaceOnUse" />
    <linearGradient
       id="linearGradient4758"
       inkscape:swatch="solid">
      <stop
         style="stop-color:#dce0e8;stop-opacity:1;"
         offset="0"
         id="stop4756" />
    </linearGradient>
    <linearGradient
       id="linearGradient2788"
       inkscape:swatch="gradient">
      <stop
         style="stop-color:#dce0e8;stop-opacity:1;"
         offset="0"
         id="stop2784" />
      <stop
         style="stop-color:#dce0e8;stop-opacity:0;"
         offset="1"
         id="stop2786" />
    </linearGradient>
    <linearGradient
       inkscape:collect="always"
       id="linearGradient13712">
      <stop
         style="stop-color:#a3aeec;stop-opacity:1;"
         offset="0"
         id="stop13708" />
      <stop
         style="stop-color:#a3aeec;stop-opacity:0;"
         offset="1"
         id="stop13710" />
    </linearGradient>
    <radialGradient
       inkscape:collect="always"
       xlink:href="#linearGradient13712"
       id="radialGradient13714"
       cx="244.64001"
       cy="247.73257"
       fx="244.64001"
       fy="247.73257"
       r="201.28954"
       gradientTransform="matrix(0.41116481,-5.0290435e-4,5.9063594e-4,0.48289243,-34.43654,-53.145583)"
       gradientUnits="userSpaceOnUse" />
  </defs>
  <g
     inkscape:label="Layer 1"
     inkscape:groupmode="layer"
     id="layer1"
     transform="translate(-0.1595428,-0.21944809)">
    <rect
       style="fill:url(#linearGradient17339);fill-opacity:1;stroke:#214552;stroke-width:5.384;stroke-miterlimit:4;stroke-dasharray:none;stroke-opacity:1"
       id="rect14856"
       width="126.69801"
       height="126.65184"
       x="2.8515878"
       y="2.9114931"
       ry="6.4618292" />
    <path
       id="path9013"
       style="fill:#c7d4ff;stroke:url(#radialGradient13714);stroke-width:2.02459;stroke-miterlimit:4;stroke-dasharray:none;stroke-opacity:1"
       d="M 79.485549,25.547034 C 78.45076,25.271209 72.374293,40.370128 68.963601,47.651058 a 19.233612,19.233612 0 0 0 -1.581274,-0.0661 19.233612,19.233612 0 0 0 -4.895779,0.647285 C 55.753088,42.297125 43.495291,30.46101 42.637591,31.094002 41.645492,31.82621 48.97687,51.24914 50.634363,57.37454 a 19.233612,19.233612 0 0 0 -1.189845,2.513735 c -5.39868,1.690204 -23.760554,5.029352 -23.798836,6.205049 -0.03443,1.108193 16.630157,4.067059 23.206495,5.830979 a 19.233612,19.233612 0 0 0 1.476136,3.759336 c -3.490149,6.040477 -13.353521,20.143033 -12.47854,20.909441 0.85894,0.752286 14.33013,-8.949695 20.508498,-12.804756 a 19.233612,19.233612 0 0 0 5.282869,1.883427 c 3.687964,6.896435 10.597343,21.764199 11.648175,21.499409 1.206301,-0.30398 1.768553,-19.552982 2.687669,-24.310504 a 19.233612,19.233612 0 0 0 1.544988,-1.13172 c 4.958091,0.278166 23.644188,3.841739 24.302978,2.821781 0.61899,-0.958074 -12.886287,-11.052659 -17.385818,-15.203809 a 19.233612,19.233612 0 0 0 0.176951,-2.528364 19.233612,19.233612 0 0 0 -0.02066,-0.784138 c 5.09621,-3.919948 20.716927,-13.540297 20.341807,-14.648621 -0.43928,-1.297627 -23.679653,2.884589 -25.582676,2.220324 A 19.233612,19.233612 0 0 0 81.135607,53.376761 C 80.12106,51.180811 80.79754,25.89744 79.482106,25.546924 Z" />
  </g>
</svg>
