<?xml version="1.0" encoding="UTF-8" standalone="no"?>
<!-- Created with Inkscape (http://www.inkscape.org/) -->

<svg
   width="500"
   height="500"
   viewBox="0 0 132.29166 132.29167"
   version="1.1"
   id="svg14830"
   inkscape:version="1.1.1 (3bf5ae0d25, 2021-09-20, custom)"
   sodipodi:docname="magic_enhancer.svg"
   xmlns:inkscape="http://www.inkscape.org/namespaces/inkscape"
   xmlns:sodipodi="http://sodipodi.sourceforge.net/DTD/sodipodi-0.dtd"
   xmlns="http://www.w3.org/2000/svg"
   xmlns:svg="http://www.w3.org/2000/svg">
  <sodipodi:namedview
     id="namedview14832"
     pagecolor="#505050"
     bordercolor="#ffffff"
     borderopacity="1"
     inkscape:pageshadow="0"
     inkscape:pageopacity="0"
     inkscape:pagecheckerboard="1"
     inkscape:document-units="mm"
     showgrid="false"
     scale-x="1"
     units="px"
     inkscape:zoom="1"
     inkscape:cx="138"
     inkscape:cy="326.49999"
     inkscape:window-width="1920"
     inkscape:window-height="1016"
     inkscape:window-x="0"
     inkscape:window-y="0"
     inkscape:window-maximized="1"
     inkscape:current-layer="layer1"
     inkscape:snap-page="true"
     inkscape:snap-grids="true"
     inkscape:snap-text-baseline="false"
     inkscape:snap-others="true"
     inkscape:object-nodes="false"
     inkscape:snap-bbox="true"
     inkscape:bbox-nodes="true">
    <inkscape:grid
       type="xygrid"
       id="grid19431" />
  </sodipodi:namedview>
  <defs
     id="defs14827" />
  <g
     inkscape:label="Layer 1"
     inkscape:groupmode="layer"
     id="layer1">
    <rect
       style="fill:#927a50;fill-opacity:1;stroke:#7f603d;stroke-width:5.39357;stroke-miterlimit:4;stroke-dasharray:none;stroke-opacity:1"
       id="rect14856"
       width="126.89809"
       height="126.8981"
       x="2.6967852"
       y="2.6967852"
       ry="6.4743924" />
    <circle
       style="fill:#825c26;fill-opacity:1;stroke:#69471f;stroke-width:3.30392;stroke-miterlimit:4;stroke-dasharray:none;stroke-opacity:1"
       id="path3005"
       cx="66.145836"
       cy="66.145836"
       r="13.444246" />
    <path
       sodipodi:type="spiral"
       style="fill:none;fill-rule:evenodd;stroke:#694220;stroke-width:12.05164203;stroke-miterlimit:4;stroke-dasharray:none;stroke-opacity:1"
       id="path1050"
       sodipodi:cx="443.27533"
       sodipodi:cy="79.520187"
       sodipodi:expansion="1"
       sodipodi:revolution="3"
       sodipodi:radius="154.24956"
       sodipodi:argument="-16.354795"
       sodipodi:t0="0"
       d="m 443.27533,79.520187 c -6.17157,4.660881 -9.32761,-6.019639 -7.74669,-10.257556 4.28419,-11.48449 19.73014,-11.272656 28.2618,-5.235823 15.26114,10.798478 14.10796,33.152195 2.72496,46.266052 -16.70502,19.2451 -46.76668,17.05594 -64.27029,0.21409 -23.32956,-22.447548 -20.05366,-60.450841 2.29677,-82.274542 28.12574,-27.46290138 74.16853,-23.0774434 100.27879,4.807642 31.62302,33.772575 26.11639,87.90517 -7.31851,118.28303 C 458.10028,187.12234 395.84852,180.48795 361.21488,141.4937 321.22898,96.473308 328.99518,26.083698 373.55512,-12.797816 424.18696,-56.977464 502.72704,-48.076793 545.85089,2.0532922 594.22934,58.291671 584.19237,144.99115 528.48891,192.3533 466.64753,244.93427 371.78207,233.75969 320.18466,172.48046"
       transform="matrix(0.07880272,0.04632966,-0.08588846,0.14608881,71.668933,-4.1320612)" />
    <path
       sodipodi:type="spiral"
       style="fill:none;fill-rule:evenodd;stroke:#694220;stroke-width:12.0516;stroke-miterlimit:4;stroke-dasharray:none;stroke-opacity:1"
       id="path1528"
       sodipodi:cx="443.27533"
       sodipodi:cy="79.520187"
       sodipodi:expansion="1"
       sodipodi:revolution="3"
       sodipodi:radius="154.24956"
       sodipodi:argument="-16.354795"
       sodipodi:t0="0"
       d="m 443.27533,79.520187 c -6.17157,4.660881 -9.32761,-6.019639 -7.74669,-10.257556 4.28419,-11.48449 19.73014,-11.272656 28.2618,-5.235823 15.26114,10.798478 14.10796,33.152195 2.72496,46.266052 -16.70502,19.2451 -46.76668,17.05594 -64.27029,0.21409 -23.32956,-22.447548 -20.05366,-60.450841 2.29677,-82.274542 28.12574,-27.46290138 74.16853,-23.0774434 100.27879,4.807642 31.62302,33.772575 26.11639,87.90517 -7.31851,118.28303 C 458.10028,187.12234 395.84852,180.48795 361.21488,141.4937 321.22898,96.473308 328.99518,26.083698 373.55512,-12.797816 424.18696,-56.977464 502.72704,-48.076793 545.85089,2.0532922 594.22934,58.291671 584.19237,144.99115 528.48891,192.3533 466.64753,244.93427 371.78207,233.75969 320.18466,172.48046"
       transform="matrix(0.06514666,-0.06412658,0.11888139,0.12077245,-7.455524,48.459934)" />
    <path
       sodipodi:type="spiral"
       style="fill:none;fill-rule:evenodd;stroke:#694220;stroke-width:12.0516;stroke-miterlimit:4;stroke-dasharray:none;stroke-opacity:1"
       id="path1610"
       sodipodi:cx="443.27533"
       sodipodi:cy="79.520187"
       sodipodi:expansion="1"
       sodipodi:revolution="3"
       sodipodi:radius="154.24956"
       sodipodi:argument="-16.354795"
       sodipodi:t0="0"
       d="m 443.27533,79.520187 c -6.17157,4.660881 -9.32761,-6.019639 -7.74669,-10.257556 4.28419,-11.48449 19.73014,-11.272656 28.2618,-5.235823 15.26114,10.798478 14.10796,33.152195 2.72496,46.266052 -16.70502,19.2451 -46.76668,17.05594 -64.27029,0.21409 -23.32956,-22.447548 -20.05366,-60.450841 2.29677,-82.274542 28.12574,-27.46290138 74.16853,-23.0774434 100.27879,4.807642 31.62302,33.772575 26.11639,87.90517 -7.31851,118.28303 C 458.10028,187.12234 395.84852,180.48795 361.21488,141.4937 321.22898,96.473308 328.99518,26.083698 373.55512,-12.797816 424.18696,-56.977464 502.72704,-48.076793 545.85089,2.0532922 594.22934,58.291671 584.19237,144.99115 528.48891,192.3533 466.64753,244.93427 371.78207,233.75969 320.18466,172.48046"
       transform="matrix(-0.06412658,-0.06514666,0.12077245,-0.11888139,48.459934,139.7472)" />
    <path
       sodipodi:type="spiral"
       style="fill:none;fill-rule:evenodd;stroke:#694220;stroke-width:12.0516;stroke-miterlimit:4;stroke-dasharray:none;stroke-opacity:1"
       id="path1692"
       sodipodi:cx="443.27533"
       sodipodi:cy="79.520187"
       sodipodi:expansion="1"
       sodipodi:revolution="3"
       sodipodi:radius="154.24956"
       sodipodi:argument="-16.354795"
       sodipodi:t0="0"
       d="m 443.27533,79.520187 c -6.17157,4.660881 -9.32761,-6.019639 -7.74669,-10.257556 4.28419,-11.48449 19.73014,-11.272656 28.2618,-5.235823 15.26114,10.798478 14.10796,33.152195 2.72496,46.266052 -16.70502,19.2451 -46.76668,17.05594 -64.27029,0.21409 -23.32956,-22.447548 -20.05366,-60.450841 2.29677,-82.274542 28.12574,-27.46290138 74.16853,-23.0774434 100.27879,4.807642 31.62302,33.772575 26.11639,87.90517 -7.31851,118.28303 C 458.10028,187.12234 395.84852,180.48795 361.21488,141.4937 321.22898,96.473308 328.99518,26.083698 373.55512,-12.797816 424.18696,-56.977464 502.72704,-48.076793 545.85089,2.0532922 594.22934,58.291671 584.19237,144.99115 528.48891,192.3533 466.64753,244.93427 371.78207,233.75969 320.18466,172.48046"
       transform="matrix(-0.06514666,0.06412658,-0.11888139,-0.12077245,139.7472,83.831738)" />
  </g>
</svg>
